HIERARCHY
ROOT Hips
{
	OFFSET 0.000000 0.000000 0.000000 
	CHANNELS 6 Xposition Yposition Zposition Yrotation Zrotation Xrotation 
	JOINT Lumbar
	{
		OFFSET 0.000000 0.000000 0.000000 
		CHANNELS 3 Zrotation Xrotation Yrotation
		JOINT Neck
		{
			OFFSET 0.000000 0.445665 0.000000 
			CHANNELS 3 Zrotation Xrotation Yrotation
			End Site
			{
				OFFSET 0.000000 0.227535 0.000000 
			}
		}
		JOINT RightShoulder
		{
			OFFSET 0.019635 0.377685 0.194865 
			CHANNELS 3 Zrotation Xrotation Yrotation
			JOINT RightElbow
			{
				OFFSET 0.000000 -0.243375 0.000000 
				CHANNELS 2 Zrotation Yrotation
				JOINT RightWrist
				{
					OFFSET 0.000000 -0.264825 0.000000 
					CHANNELS 2 Zrotation Xrotation
					End Site
					{
						OFFSET 0.006600 -0.176220 0.000990 
					}
				}
			}
		}
		JOINT LeftShoulder
		{
			OFFSET 0.019635 0.377685 -0.194865 
			CHANNELS 3 Zrotation Xrotation Yrotation
			JOINT LeftElbow
			{
				OFFSET 0.000000 -0.243375 0.000000 
				CHANNELS 2 Zrotation Yrotation
				JOINT LeftWrist
				{
					OFFSET 0.000000 -0.264825 0.000000 
					CHANNELS 2 Zrotation Xrotation
					End Site
					{
						OFFSET 0.006600 -0.176220 -0.000990 
					}
				}
			}
		}
	}
	JOINT RightHip
	{
		OFFSET 0.052140 -0.069960 0.075570 
		CHANNELS 3 Zrotation Xrotation Yrotation
		JOINT RightKnee
		{
			OFFSET 0.000000 -0.402270 0.000000 
			CHANNELS 1 Zrotation
			JOINT RightAnkle
			{
				OFFSET 0.000000 -0.404085 0.000000 
				CHANNELS 3 Zrotation Xrotation Yrotation
				End Site
				{
					OFFSET 0.204105 -0.089430 0.008415 
				}
			}
		}
	}
	JOINT LeftHip
	{
		OFFSET 0.052140 -0.069960 -0.075570 
		CHANNELS 3 Zrotation Xrotation Yrotation
		JOINT LeftKnee
		{
			OFFSET 0.000000 -0.402270 0.000000 
			CHANNELS 1 Zrotation
			JOINT LeftAnkle
			{
				OFFSET 0.000000 -0.404085 0.000000 
				CHANNELS 3 Zrotation Xrotation Yrotation
				End Site
				{
					OFFSET 0.204105 -0.089430 -0.008415 
				}
			}
		}
	}
}
MOTION
Frames: 19
Frame Time: 0.02
-0.00243 6e-05 -0.00189 29.94504 -20.85979 -3.46858 43.68519 0.33201 -8.55113 -8.19061 3.03059 -0.47352 -19.41928 -6.79756 -7.11821 29.43522 96.82139 8.54946 1.20162 -23.74143 4.27324 36.99114 27.51234 -155.09193 26.75026 -11.07181 32.53045 -3.21939 -7.55543 -19.90298 -5.99044 -3.41662 -2.48688 37.25338 2.61659 3.97714 -24.05145 -6.62351 2.53205 1.95211
-0.00229 0.00012 -0.00232 30.28443 -20.87023 -3.51523 43.73299 0.35664 -8.4073 -8.16585 3.12031 -0.47386 -19.62051 -6.96105 -7.41601 29.20935 96.90566 8.59944 1.18979 -23.84237 4.30304 34.72096 28.07453 -152.63367 26.46834 -10.43882 32.46414 -3.19163 -7.40114 -19.91056 -6.03535 -3.51237 -2.52034 37.25233 2.59835 3.91133 -24.0459 -6.62702 2.51453 1.93983
-0.00214 0.00018 -0.00275 30.62288 -20.88061 -3.56176 43.78067 0.38112 -8.26368 -8.14127 3.20983 -0.4742 -19.82124 -7.12354 -7.71504 28.98431 96.99628 8.65105 1.179 -23.94315 4.33341 32.45516 28.63552 -150.17721 26.18548 -9.80692 32.39796 -3.16387 -7.24714 -19.91812 -6.08011 -3.60779 -2.5537 37.25124 2.58028 3.8458 -24.04038 -6.63051 2.49704 1.92758
-0.002 0.00024 -0.00318 30.96124 -20.89102 -3.60827 43.82832 0.40567 -8.12023 -8.11658 3.2993 -0.47453 -20.02185 -7.28641 -8.01248 28.75911 97.08184 8.70128 1.16744 -24.04382 4.36325 30.19141 29.19612 -147.72515 25.90401 -9.17568 32.33185 -3.1362 -7.09334 -19.92567 -6.12488 -3.70324 -2.58705 37.2502 2.56211 3.78021 -24.03485 -6.63401 2.47957 1.91534
-0.00186 0.00029 -0.00361 31.30047 -20.90148 -3.65488 43.8761 0.43034 -7.9767 -8.09175 3.38893 -0.47487 -20.22299 -7.4506 -8.3073 28.53316 97.15729 8.74891 1.15425 -24.14458 4.3922 27.92465 29.75759 -145.27466 25.62452 -8.54385 32.26561 -3.10854 -6.93919 -19.93326 -6.16981 -3.79903 -2.62049 37.24921 2.54377 3.71426 -24.0293 -6.63753 2.46211 1.90308
-0.00171 0.00035 -0.00404 31.63724 -20.91168 -3.70124 43.92356 0.45442 -7.83292 -8.06771 3.4782 -0.47521 -20.42288 -7.60956 -8.61479 28.31012 97.27897 8.80867 1.1484 -24.24535 4.4255 25.66128 30.31746 -142.80652 25.33482 -7.91198 32.19957 -3.08055 -6.78547 -19.94077 -6.21423 -3.89368 -2.6537 37.2479 2.52626 3.64959 -24.02384 -6.64097 2.44457 1.89084
-0.00157 0.00041 -0.00448 31.97862 -20.92243 -3.74807 43.97157 0.47973 -7.6897 -8.04197 3.56817 -0.47554 -20.62485 -7.77853 -8.89803 28.08114 97.31107 8.84484 1.12835 -24.3461 4.45022 23.3926 30.88029 -140.37346 25.06502 -7.28041 32.13326 -3.05334 -6.63137 -19.9484 -6.25961 -3.99047 -2.68732 37.24728 2.50708 3.58254 -24.01818 -6.64456 2.42717 1.87857
-0.00143 0.00047 -0.0049 32.31572 -20.93262 -3.79443 44.01917 0.50381 -7.54615 -8.01803 3.65735 -0.47588 -20.82531 -7.93892 -9.20073 27.85824 97.41927 8.90114 1.12038 -24.44668 4.48246 21.13059 31.43969 -137.91379 24.77864 -6.64941 32.06709 -3.02527 -6.47705 -19.95594 -6.30413 -4.08538 -2.7206 37.24593 2.48943 3.51746 -24.01273 -6.648 2.40969 1.86635
-0.00127 0.00053 -0.00531 32.64787 -20.94232 -3.84037 44.06588 0.52677 -7.40134 -7.99535 3.74616 -0.47622 -21.0224 -8.0862 -9.53928 27.6403 97.64754 8.98886 1.13138 -24.54787 4.5256 18.86826 31.99801 -135.39676 24.46449 -6.01534 32.00147 -2.99667 -6.32464 -19.96329 -6.34749 -4.17768 -2.7533 37.24408 2.4737 3.45565 -24.00746 -6.65134 2.39189 1.85409
-0.00118 0.00058 -0.00582 33.00934 -20.95543 -3.8892 44.11653 0.5573 -7.26118 -7.96261 3.83889 -0.47653 -21.23431 -8.30101 -9.70784 27.38639 97.26641 8.91633 1.04585 -24.64798 4.51115 16.5822 32.57197 -133.13491 24.28751 -5.38758 31.9338 -2.97266 -6.16778 -19.97151 -6.39721 -4.28405 -2.78887 37.24626 2.44708 3.37761 -24.00092 -6.65548 2.37529 1.84173
-0.00095 0.00065 -0.00612 33.30836 -20.96097 -3.93164 44.15965 0.57118 -7.11291 -7.9529 3.92222 -0.47691 -21.41784 -8.37843 -10.21164 27.21314 98.11823 9.16856 1.15581 -24.7488 4.61487 14.363 33.10682 -130.38334 23.83578 -4.75389 31.86978 -2.93802 -6.01616 -19.97802 -6.43372 -4.36135 -2.81866 37.2392 2.44336 3.33218 -23.99719 -6.65777 2.35656 1.8298
-0.00039 0.00077 -0.0059 33.43903 -20.94815 -3.95869 44.17569 0.54433 -6.92823 -7.99296 3.98869 -0.47743 -21.49876 -8.03233 -11.84214 27.22308 102.83274 10.43368 1.87663 -24.86563 5.07451 12.18727 33.5847 -125.86408 22.49963 -4.04133 31.82082 -2.8817 -5.91422 -19.97886 -6.4317 -4.35284 -2.83018 37.21201 2.50387 3.39108 -24.00032 -6.65647 2.32863 1.81741
0.00031 0.0009 -0.00547 33.50616 -20.92703 -3.97889 44.18553 0.49983 -6.73805 -8.05924 4.04404 -0.47802 -21.5555 -7.55613 -13.77422 27.32024 108.70368 12.00432 2.78101 -24.98127 5.64752 10.10293 34.01469 -120.92571 20.91037 -3.33346 31.7742 -2.81336 -5.81193 -19.97815 -6.41678 -4.31618 -2.83627 37.17416 2.58729 3.48031 -24.00641 -6.65306 2.29916 1.80574
0.00097 0.00103 -0.00512 33.60073 -20.90843 -4.00081 44.20215 0.46018 -6.55963 -8.12149 4.09864 -0.47858 -21.63978 -7.17085 -15.42911 27.40349 113.72331 13.35316 3.55143 -25.08737 6.14727 8.07023 34.43284 -116.46341 19.52388 -2.66553 31.72368 -2.74558 -5.68554 -19.9788 -6.40934 -4.29642 -2.84646 37.13832 2.65913 3.54552 -24.01177 -6.64964 2.27261 1.7948
0.00151 0.00117 -0.00482 33.70237 -20.89609 -4.02866 44.20128 0.43395 -6.34205 -8.14794 4.17774 -0.47914 -21.65518 -6.65425 -17.66279 27.38182 120.09107 15.04474 4.53124 -25.23312 6.73669 5.65114 34.98987 -110.81876 17.77212 -1.82389 31.68668 -2.69829 -5.65771 -19.97675 -6.39528 -4.25954 -2.84997 37.11617 2.73532 3.65262 -24.01466 -6.65021 2.23675 1.77944
0.00235 0.00129 -0.00437 33.7728 -20.86752 -4.04247 44.23629 0.37551 -6.2048 -8.2584 4.20316 -0.47972 -21.80699 -6.37634 -18.77923 27.59492 123.96194 16.10499 5.12388 -25.29968 7.16912 4.05003 35.24991 -107.50704 16.71407 -1.3403 31.62015 -2.6057 -5.42933 -19.97986 -6.39167 -4.25128 -2.86586 37.06079 2.80869 3.68141 -24.02322 -6.64209 2.21984 1.77342
0.00385 0.00135 -0.00353 33.78439 -20.80683 -4.01988 44.364 0.23333 -6.28966 -8.56639 4.08327 -0.48033 -22.35226 -6.82377 -16.59247 28.47071 120.32929 15.25737 4.55463 -25.11649 7.11461 4.7595 34.67095 -110.99909 17.69346 -1.88564 31.48826 -2.38911 -4.60709 -19.99862 -6.42239 -4.33209 -2.91933 36.93561 2.86164 3.471 -24.04877 -6.60961 2.25639 1.79337
0.00568 0.0014 -0.00253 33.76427 -20.72824 -3.98332 44.52938 0.05931 -6.45548 -8.96293 3.90981 -0.48096 -23.03306 -7.50913 -13.29906 29.5716 114.20234 13.77947 3.59811 -24.85957 6.90276 6.27595 33.80081 -116.8019 19.36699 -2.78301 31.32367 -2.12777 -3.59144 -20.02247 -6.46357 -4.4419 -2.98498 36.77407 2.91231 3.18331 -24.07986 -6.56866 2.31199 1.82265
0.00745 0.00146 -0.00161 33.75135 -20.65066 -3.95266 44.68287 -0.10089 -6.58525 -9.33772 3.76064 -0.48158 -23.6454 -8.06357 -10.60517 30.5478 109.43319 12.65026 2.85044 -24.6569 6.78001 7.37316 33.08366 -121.38104 20.6856 -3.49257 31.16275 -1.88805 -2.68957 -20.04334 -6.49857 -4.53662 -3.04385 36.61611 2.96858 2.94163 -24.10665 -6.53214 2.35827 1.84735
